<mxfile host="app.diagrams.net" modified="2023-01-23T19:13:47.822Z" agent="5.0 (Macintosh; Intel Mac OS X 10_15_5) AppleWebKit/537.36 (KHTML, like Gecko) Chrome/109.0.0.0 Safari/537.36" version="20.8.0" etag="-twrwHFvkXCZEf7psHpx" type="github">
  <diagram id="kX_O_OF6HSYOoAZxgLRA" name="Page-1">
    <mxGraphModel dx="794" dy="473" grid="0" gridSize="10" guides="1" tooltips="1" connect="1" arrows="1" fold="1" page="1" pageScale="1" pageWidth="850" pageHeight="1100" math="0" shadow="0">
      <root>
        <mxCell id="0" />
        <mxCell id="1" parent="0" />
        <mxCell id="p3ZXkFTD7IRNpl3XosAn-1" value="HTML" style="rounded=0;whiteSpace=wrap;html=1;" vertex="1" parent="1">
          <mxGeometry x="350" y="40" width="120" height="60" as="geometry" />
        </mxCell>
        <mxCell id="p3ZXkFTD7IRNpl3XosAn-2" value="head" style="rounded=0;whiteSpace=wrap;html=1;" vertex="1" parent="1">
          <mxGeometry x="103" y="40" width="120" height="60" as="geometry" />
        </mxCell>
        <mxCell id="p3ZXkFTD7IRNpl3XosAn-3" value="body" style="rounded=0;whiteSpace=wrap;html=1;" vertex="1" parent="1">
          <mxGeometry x="350" y="115" width="120" height="60" as="geometry" />
        </mxCell>
        <mxCell id="p3ZXkFTD7IRNpl3XosAn-4" value="div" style="rounded=0;whiteSpace=wrap;html=1;" vertex="1" parent="1">
          <mxGeometry x="350" y="191" width="120" height="60" as="geometry" />
        </mxCell>
        <mxCell id="p3ZXkFTD7IRNpl3XosAn-20" style="edgeStyle=none;rounded=0;orthogonalLoop=1;jettySize=auto;html=1;exitX=0.5;exitY=1;exitDx=0;exitDy=0;entryX=0.5;entryY=0;entryDx=0;entryDy=0;" edge="1" parent="1" source="p3ZXkFTD7IRNpl3XosAn-5" target="p3ZXkFTD7IRNpl3XosAn-10">
          <mxGeometry relative="1" as="geometry" />
        </mxCell>
        <mxCell id="p3ZXkFTD7IRNpl3XosAn-21" style="edgeStyle=none;rounded=0;orthogonalLoop=1;jettySize=auto;html=1;exitX=0.5;exitY=1;exitDx=0;exitDy=0;entryX=0.5;entryY=0;entryDx=0;entryDy=0;" edge="1" parent="1" source="p3ZXkFTD7IRNpl3XosAn-5" target="p3ZXkFTD7IRNpl3XosAn-11">
          <mxGeometry relative="1" as="geometry" />
        </mxCell>
        <mxCell id="p3ZXkFTD7IRNpl3XosAn-22" style="edgeStyle=none;rounded=0;orthogonalLoop=1;jettySize=auto;html=1;exitX=0.5;exitY=1;exitDx=0;exitDy=0;entryX=0.5;entryY=0;entryDx=0;entryDy=0;" edge="1" parent="1" source="p3ZXkFTD7IRNpl3XosAn-5" target="p3ZXkFTD7IRNpl3XosAn-9">
          <mxGeometry relative="1" as="geometry" />
        </mxCell>
        <mxCell id="p3ZXkFTD7IRNpl3XosAn-5" value="ul" style="rounded=0;whiteSpace=wrap;html=1;" vertex="1" parent="1">
          <mxGeometry x="350" y="266" width="120" height="57" as="geometry" />
        </mxCell>
        <mxCell id="p3ZXkFTD7IRNpl3XosAn-6" value="li" style="rounded=0;whiteSpace=wrap;html=1;" vertex="1" parent="1">
          <mxGeometry x="53" y="415" width="120" height="60" as="geometry" />
        </mxCell>
        <mxCell id="p3ZXkFTD7IRNpl3XosAn-8" value="li" style="rounded=0;whiteSpace=wrap;html=1;" vertex="1" parent="1">
          <mxGeometry x="191" y="415" width="120" height="60" as="geometry" />
        </mxCell>
        <mxCell id="p3ZXkFTD7IRNpl3XosAn-9" value="li" style="rounded=0;whiteSpace=wrap;html=1;" vertex="1" parent="1">
          <mxGeometry x="331" y="413" width="120" height="60" as="geometry" />
        </mxCell>
        <mxCell id="p3ZXkFTD7IRNpl3XosAn-10" value="li" style="rounded=0;whiteSpace=wrap;html=1;" vertex="1" parent="1">
          <mxGeometry x="466" y="413" width="120" height="60" as="geometry" />
        </mxCell>
        <mxCell id="p3ZXkFTD7IRNpl3XosAn-11" value="li" style="rounded=0;whiteSpace=wrap;html=1;" vertex="1" parent="1">
          <mxGeometry x="605" y="413" width="120" height="60" as="geometry" />
        </mxCell>
        <mxCell id="p3ZXkFTD7IRNpl3XosAn-12" value="" style="endArrow=classic;html=1;rounded=0;exitX=0;exitY=0.5;exitDx=0;exitDy=0;entryX=1;entryY=0.5;entryDx=0;entryDy=0;" edge="1" parent="1" source="p3ZXkFTD7IRNpl3XosAn-1" target="p3ZXkFTD7IRNpl3XosAn-2">
          <mxGeometry width="50" height="50" relative="1" as="geometry">
            <mxPoint x="353" y="363" as="sourcePoint" />
            <mxPoint x="403" y="313" as="targetPoint" />
          </mxGeometry>
        </mxCell>
        <mxCell id="p3ZXkFTD7IRNpl3XosAn-13" value="" style="endArrow=classic;html=1;rounded=0;exitX=0.5;exitY=1;exitDx=0;exitDy=0;entryX=0.5;entryY=0;entryDx=0;entryDy=0;" edge="1" parent="1" source="p3ZXkFTD7IRNpl3XosAn-1" target="p3ZXkFTD7IRNpl3XosAn-3">
          <mxGeometry width="50" height="50" relative="1" as="geometry">
            <mxPoint x="353" y="253" as="sourcePoint" />
            <mxPoint x="403" y="203" as="targetPoint" />
          </mxGeometry>
        </mxCell>
        <mxCell id="p3ZXkFTD7IRNpl3XosAn-14" value="" style="endArrow=classic;html=1;rounded=0;exitX=0.5;exitY=1;exitDx=0;exitDy=0;entryX=0.5;entryY=0;entryDx=0;entryDy=0;" edge="1" parent="1" source="p3ZXkFTD7IRNpl3XosAn-3" target="p3ZXkFTD7IRNpl3XosAn-4">
          <mxGeometry width="50" height="50" relative="1" as="geometry">
            <mxPoint x="353" y="253" as="sourcePoint" />
            <mxPoint x="403" y="203" as="targetPoint" />
          </mxGeometry>
        </mxCell>
        <mxCell id="p3ZXkFTD7IRNpl3XosAn-15" value="" style="endArrow=classic;html=1;rounded=0;exitX=0.5;exitY=1;exitDx=0;exitDy=0;entryX=0.5;entryY=0;entryDx=0;entryDy=0;" edge="1" parent="1" source="p3ZXkFTD7IRNpl3XosAn-4" target="p3ZXkFTD7IRNpl3XosAn-5">
          <mxGeometry width="50" height="50" relative="1" as="geometry">
            <mxPoint x="353" y="253" as="sourcePoint" />
            <mxPoint x="403" y="203" as="targetPoint" />
          </mxGeometry>
        </mxCell>
        <mxCell id="p3ZXkFTD7IRNpl3XosAn-16" value="" style="endArrow=classic;html=1;rounded=0;exitX=0.5;exitY=1;exitDx=0;exitDy=0;entryX=0.5;entryY=0;entryDx=0;entryDy=0;" edge="1" parent="1" source="p3ZXkFTD7IRNpl3XosAn-5" target="p3ZXkFTD7IRNpl3XosAn-6">
          <mxGeometry width="50" height="50" relative="1" as="geometry">
            <mxPoint x="353" y="375" as="sourcePoint" />
            <mxPoint x="403" y="325" as="targetPoint" />
          </mxGeometry>
        </mxCell>
        <mxCell id="p3ZXkFTD7IRNpl3XosAn-17" value="" style="endArrow=classic;html=1;rounded=0;exitX=0.5;exitY=1;exitDx=0;exitDy=0;entryX=0.5;entryY=0;entryDx=0;entryDy=0;" edge="1" parent="1" source="p3ZXkFTD7IRNpl3XosAn-5" target="p3ZXkFTD7IRNpl3XosAn-8">
          <mxGeometry width="50" height="50" relative="1" as="geometry">
            <mxPoint x="390" y="395" as="sourcePoint" />
            <mxPoint x="123" y="425" as="targetPoint" />
          </mxGeometry>
        </mxCell>
      </root>
    </mxGraphModel>
  </diagram>
</mxfile>
